<?xml version="1.0" encoding="utf-8"?>
<!-- Generator: Adobe Illustrator 22.0.1, SVG Export Plug-In . SVG Version: 6.00 Build 0)  -->
<svg version="1.1" id="Layer_1" xmlns="http://www.w3.org/2000/svg" xmlns:xlink="http://www.w3.org/1999/xlink" x="0px" y="0px"
	 viewBox="0 0 256 256" style="enable-background:new 0 0 256 256;" xml:space="preserve">
<g>
	<g>
		<g>
			<path d="M158.9,114.9V65.2c0-4.9-4-9-9-9c-4.9,0-9,4-9,9v49.6C146.8,115.9,152.9,116,158.9,114.9z"/>
			<path d="M132,112.3V76.4c0-4.9-4-9-9-9c-4.9,0-9,4-9,9V100C119.2,105.5,125.3,109.7,132,112.3z"/>
			<path d="M185.8,100V54c0-4.9-4-9-9-9c-4.9,0-9,4-9,9v58.3c3.1-1.2,6.2-2.8,9.1-4.8C180.2,105.4,183.2,102.8,185.8,100z"/>
			<path d="M204.9,204.5L204.9,204.5H94.1l-4.6-17.3h129.3c-1.3-0.7-2.4-1.7-3.2-3l-10.7-16.2H84.5L66,97.8h24.4
				c-0.1-0.3-0.2-0.7-0.2-1.1c-2.9-5.9-4.9-12-6-18.2H60.9l-8.1-30.8c-1.1-4.2-4.9-7.2-9.3-7.2H9.8c-5.3,0-9.6,4.3-9.6,9.6
				c0,5.3,4.3,9.6,9.6,9.6h26.3l31.2,118.7c0.1,1,0.4,1.9,0.7,2.8l6.8,26c-8.3,4.3-14,12.9-14,22.9c0,14.2,11.5,25.7,25.7,25.7
				c14.2,0,25.7-11.5,25.7-25.7c0-2.2-0.3-4.4-0.8-6.5H180c-0.5,2.1-0.8,4.3-0.8,6.5c0,14.2,11.5,25.7,25.7,25.7
				c14.2,0,25.7-11.5,25.7-25.7C230.6,216.1,219.1,204.5,204.9,204.5z M86.7,236.8c-3.6,0-6.5-2.9-6.5-6.5c0-3.6,2.9-6.5,6.5-6.5
				c3.6,0,6.5,2.9,6.5,6.5C93.2,233.8,90.2,236.8,86.7,236.8z M204.9,236.8c-3.6,0-6.5-2.9-6.5-6.5c0-3.6,2.9-6.5,6.5-6.5
				c3.6,0,6.5,2.9,6.5,6.5C211.4,233.8,208.5,236.8,204.9,236.8z"/>
			<path d="M253.8,82.3c-1.8-2.3-4.6-3.7-7.6-3.7h-30.5c-0.1,0.5-0.1,1-0.2,1.4c-0.8,3.9-1.9,7.7-3.4,11.4c-0.9,2.2-1.9,4.4-3,6.4
				h24.7L221,148l-1.4,5.6l12.8,19.4c0.6,1,1,2,1.3,3.1l3.1-12.2l18.7-73.2C256.2,87.7,255.6,84.6,253.8,82.3z"/>
		</g>
		<path d="M232.4,173l-12.8-19.4l-24.7-37.4c5.8-5.3,10.6-11.5,14.2-18.4c1.1-2.1,2.1-4.2,3-6.4c1.4-3.7,2.6-7.4,3.4-11.4
			c0.1-0.5,0.2-1,0.2-1.4c0.4-2,0.6-4,0.8-5.9c1.3-15.1-2.4-30-10.9-42.8c-9.9-14.9-25-25-42.5-28.5c-17.5-3.5-35.3,0-50.2,9.9
			c-13.1,8.7-22.1,21.3-26.6,35.3c-2,6.1-3,12.5-3.2,19c-0.1,4.4,0.3,8.8,1,13.1c1.1,6.2,3.1,12.3,6,18.2c1.2,2.4,2.5,4.8,4,7
			c10.2,15.3,25.7,25.1,42.5,28.5c13.6,2.7,28.1,1.2,41.3-4.9l26.8,40.6l10.7,16.2c0.9,1.3,2,2.3,3.2,3h4.6c3.1,0,5.9-1.5,7.6-3.8
			c0.8-1,1.4-2.1,1.7-3.4l1-3.9C233.4,175,233,173.9,232.4,173z M185.8,100c-2.6,2.8-5.5,5.3-8.8,7.5c-2.9,1.9-6,3.5-9.1,4.8
			c-2.9,1.2-5.9,2-9,2.6c-6,1.1-12,1.1-17.9,0c-3.1-0.6-6.1-1.4-9-2.6c-6.7-2.6-12.8-6.8-17.9-12.3c-1.8-1.9-3.4-3.9-4.9-6.1
			c-5.1-7.7-7.7-16.3-8.1-24.8c-0.3-6.5,0.7-13,2.9-19c3.4-9.4,9.8-17.9,18.8-23.9c10.9-7.2,23.9-9.8,36.7-7.2
			c12.8,2.6,23.8,10,31.1,20.9c5.8,8.8,8.6,19,8.1,29.3c-0.1,2.5-0.4,4.9-0.9,7.4c-0.8,4-2.1,7.7-3.8,11.3
			C191.9,92.3,189.1,96.4,185.8,100z"/>
	</g>
</g>
</svg>
