<?xml version="1.0" encoding="utf-8"?>
<!-- Generator: Adobe Illustrator 19.0.0, SVG Export Plug-In . SVG Version: 6.00 Build 0)  -->
<svg version="1.1" id="Layer_1" xmlns="http://www.w3.org/2000/svg" xmlns:xlink="http://www.w3.org/1999/xlink" x="0px" y="0px"
	 width="750px" height="750px" viewBox="0 0 750 750" style="enable-background:new 0 0 750 750;" xml:space="preserve">
<style type="text/css">
	.st0{fill:#FFFFFF;}
</style>
<path class="st0" d="M282.3,551.9c6.6,0,12,5.4,12,12c0,6.5-5.4,12-12,12c-6.6,0-12-5.4-12-12S275.7,551.9,282.3,551.9z
	 M500.4,575.9c6.6,0,12-5.5,12-12c0-6.6-5.4-12-12-12c-6.6,0-12,5.4-12,12S493.7,575.9,500.4,575.9z M451,373.6
	c-24,11.1-50.7,14-76,9c-31-6.2-59.5-24.4-78.5-52.4c-2.4-3.4-4.5-6.8-6.3-10.4h-46l33.8,129.2h223l-0.5-0.7L451,373.6z M323.9,313
	c2.8,4,5.7,7.8,8.9,11v-42.8c0-9,7.5-16.5,16.5-16.5c9,0,16.5,7.5,16.5,16.5v65.6c0,0,0.1,0,0.1,0.1c5.4,2,10.7,3.2,16.5,4.5h0
	v-90.8c0-9,7.5-16.5,16.5-16.5c9,0,16.5,7.5,16.5,16.5v90.8c5.8-1.3,11.1-2.8,16.5-4.9V239.9c0-9,7.5-16.5,16.5-16.5
	c9,0,16.5,7.5,16.5,16.5v83.7c6.2-6.6,11.6-14.5,15.4-22.1c3.4-6.5,5.4-13.1,7-20.6c0.8-4.7,1.3-9.2,1.7-13.7
	c0.8-19-4.1-38.1-14.8-54.1c-13.5-19.7-33.8-33.4-57.4-38.3c-23.5-4.9-47.4,0-67.7,13.2c-16.5,11.1-28.5,26.8-34.7,44.1
	c-4.1,11.1-5.8,23.1-5.4,35.1C309.8,282.9,314.5,298.9,323.9,313z M750,375c0,207.1-167.9,375-375,375S0,582.1,0,375S167.9,0,375,0
	S750,167.9,750,375z M590.4,290.9c-3.2-4.1-8.7-7-14.1-7h-55.9c0.8-3.6,1.2-7.4,1.7-11c2.5-27.6-4.5-55.4-20.3-78.9
	c-18.2-27.2-45.8-46.2-78.5-52.4c-32.3-6.6-65.3,0-92.5,18.2c-24.4,16.1-40.9,39.2-49.2,64.8c-3.7,11.1-5.8,23.1-5.8,35.1
	c0,8.3,0.4,16.1,2.1,24.4c0,0.1,0,0.2,0.1,0.3h-43.3l-14.8-56.9c-2.1-7.9-9-13.2-17.3-13.2h-61.9c-9.9,0-17.8,7.9-17.8,17.8
	s7.9,17.8,17.8,17.8H189l57.4,218.9c0,1.7,0.8,3.7,1.3,4.9l12.4,47.9c-15.2,7.9-26.1,24-26.1,42.1c0,26.1,21.4,47.5,47.5,47.5
	c26.1,0,47.5-21.4,47.5-47.5c0-4.1-0.4-8.3-1.7-12h127.1c-0.8,3.7-1.7,7.9-1.7,12c0,26.1,21.4,47.5,47.5,47.5s47.5-21.4,47.5-47.5
	s-21.3-47.1-47.4-47.1H296l-8.3-31.9h247.7c3.8-0.9,5.6-1.6,6.1-2.1c2.9-1.3,5.4-3.2,7.3-5.6c1.3-1.7,2.5-4.1,3.2-6.2l0.9-3.8l0,0
	l6.6-25.6l34.2-135C594.9,300.8,593.7,295.4,590.4,290.9z M508.4,319.5c-6.6,12.8-15.4,24-26.1,33.8l45.4,68.9l2.4-10.4l23.5-92.5
	h-45.2C508.4,319.4,508.4,319.5,508.4,319.5z"/>
</svg>
