<?xml version="1.0" encoding="utf-8"?>
<!-- Generator: Adobe Illustrator 19.0.0, SVG Export Plug-In . SVG Version: 6.00 Build 0)  -->
<svg version="1.1" id="Layer_1" xmlns="http://www.w3.org/2000/svg" xmlns:xlink="http://www.w3.org/1999/xlink" x="0px" y="0px"
	 width="750px" height="750px" viewBox="-539 -76.7 750 750" style="enable-background:new -539 -76.7 750 750;"
	 xml:space="preserve">
<style type="text/css">
	.st0{fill:#1E2733;}
	.st1{fill:#D9AF7D;}
	.st2{fill:#FFFFFF;}
</style>
<circle class="st0" cx="-164.5" cy="297.8" r="375"/>
<g>
	<path class="st1" d="M-146.9,268.5v-65c0-6.4-5.3-11.7-11.7-11.7s-11.7,5.3-11.7,11.7v64.7C-162.4,269.7-154.5,269.7-146.9,268.5z"
		/>
	<path class="st1" d="M-182.1,265v-46.9c0-6.4-5.3-11.7-11.7-11.7s-11.7,5.3-11.7,11.7v30.8C-198.8,256.2-190.6,261.5-182.1,265z"/>
	<path class="st1" d="M-111.8,248.9v-60.1c0-6.4-5.3-11.7-11.7-11.7c-6.4,0-11.7,5.3-11.7,11.7V265c4.1-1.8,8.2-3.8,12-6.2
		C-118.8,255.9-115,252.7-111.8,248.9z"/>
	<path class="st1" d="M-86.6,385.7L-86.6,385.7h-145l-5.9-22.6h169c-1.8-0.9-3.2-2.3-4.1-4.1l-14.1-21.1h-157.6l-24-91.7h31.9
		c0-0.6-0.3-0.9-0.3-1.5c-3.8-7.6-6.4-15.5-7.9-23.7h-30.5l-10.5-40.4c-1.5-5.6-6.4-9.4-12.3-9.4h-43.9c-7,0-12.6,5.6-12.6,12.6
		c0,7,5.6,12.6,12.6,12.6h34.3l40.7,155.3c0,1.2,0.6,2.6,0.9,3.5l8.8,34c-10.8,5.6-18.5,17-18.5,29.9c0,18.5,15.2,33.7,33.7,33.7
		s33.7-15.2,33.7-33.7c0-2.9-0.3-5.9-1.2-8.5h90.2c-0.6,2.6-1.2,5.6-1.2,8.5c0,18.5,15.2,33.7,33.7,33.7s33.7-15.2,33.7-33.7
		S-68.1,385.7-86.6,385.7z M-241.3,427.9c-4.7,0-8.5-3.8-8.5-8.5c0-4.7,3.8-8.5,8.5-8.5c4.7,0,8.5,3.8,8.5,8.5
		C-232.8,424-236.6,427.9-241.3,427.9z M-86.6,427.9c-4.7,0-8.5-3.8-8.5-8.5c0-4.7,3.8-8.5,8.5-8.5c4.7,0,8.5,3.8,8.5,8.5
		C-78.1,424-81.9,427.9-86.6,427.9z"/>
	<path class="st1" d="M-22.7,225.7c-2.3-2.9-6.2-5-10-5h-39.8c0,0.6-0.3,1.2-0.3,1.8c-1.2,5.3-2.6,10-4.4,14.9
		c-1.2,2.9-2.3,5.6-3.8,8.5h32.2l-16.7,65.6l-1.8,7.3l16.7,25.5c0.9,1.2,1.5,2.6,1.8,4.1l4.1-16.1l24.3-95.8
		C-19.5,232.7-20.4,228.9-22.7,225.7z"/>
</g>
<path class="st2" d="M-50.5,344.4l-16.7-25.5l-32.2-48.9c7.6-7,13.8-14.9,18.5-24c1.5-2.6,2.6-5.6,3.8-8.5c1.8-4.7,3.5-9.7,4.4-14.9
	c0-0.6,0.3-1.2,0.3-1.8c0.6-2.6,0.9-5.3,1.2-7.9c1.8-19.6-3.2-39.3-14.4-56c-12.9-19.3-32.5-32.8-55.7-37.2
	c-22.9-4.7-46.3,0-65.6,12.9c-17.3,11.4-29,27.8-34.9,46c-2.6,7.9-4.1,16.4-4.1,24.9c0,5.9,0.3,11.4,1.5,17.3
	c1.5,8.2,4.1,16.1,7.9,23.7c1.5,3.2,3.2,6.2,5.3,9.1c13.5,19.9,33.7,32.8,55.7,37.2c17.9,3.5,36.9,1.5,53.9-6.4l35.2,53l14.1,21.1
	c1.2,1.8,2.6,2.9,4.1,4.1h5.9c4.1,0,7.6-2.1,10-5c0.9-1.2,1.8-2.9,2.3-4.4l1.2-5C-49.4,347-49.7,345.5-50.5,344.4z M-111.8,248.9
	c-3.5,3.8-7.3,7-11.4,10c-3.8,2.6-7.9,4.7-12,6.2c-3.8,1.5-7.6,2.6-11.7,3.5c-7.9,1.5-15.8,1.5-23.4,0c-4.1-0.9-7.9-1.8-11.7-3.2
	c-8.8-3.5-16.7-8.8-23.4-16.1c-2.3-2.3-4.4-5-6.4-7.9c-6.7-10-10-21.4-10.5-32.5c-0.3-8.5,0.9-17,3.8-24.9
	c4.4-12.3,12.9-23.4,24.6-31.3c14.4-9.4,31.3-12.9,48-9.4s31.1,13.2,40.7,27.2c7.6,11.4,11.1,24.9,10.5,38.4
	c-0.3,3.2-0.6,6.4-1.2,9.7c-1.2,5.3-2.6,10-5,14.6C-103.6,238.6-107.4,244.2-111.8,248.9z"/>
</svg>
