<?xml version="1.0" encoding="utf-8"?>
<!-- Generator: Adobe Illustrator 22.0.1, SVG Export Plug-In . SVG Version: 6.00 Build 0)  -->
<svg version="1.1" id="Layer_1" xmlns="http://www.w3.org/2000/svg" xmlns:xlink="http://www.w3.org/1999/xlink" x="0px" y="0px"
	 viewBox="0 0 256 256" style="enable-background:new 0 0 256 256;" xml:space="preserve">
<style type="text/css">
	.st0{fill:#1E2733;}
	.st1{fill:#D9AF7D;}
	.st2{fill:#FFFFFF;}
</style>
<g>
	<circle class="st0" cx="127.5" cy="127.5" r="128"/>
	<g>
		<g>
			<path class="st1" d="M133.5,117.5V95.3c0-2.2-1.8-4-4-4s-4,1.8-4,4v22.1C128.2,117.9,130.9,117.9,133.5,117.5z"/>
			<path class="st1" d="M121.5,116.3v-16c0-2.2-1.8-4-4-4s-4,1.8-4,4v10.5C115.8,113.3,118.6,115.1,121.5,116.3z"/>
			<path class="st1" d="M145.5,110.8V90.3c0-2.2-1.8-4-4-4s-4,1.8-4,4v26c1.4-0.6,2.8-1.3,4.1-2.1
				C143.1,113.2,144.4,112.1,145.5,110.8z"/>
			<path class="st1" d="M154.1,157.5L154.1,157.5h-49.5l-2-7.7h57.7c-0.6-0.3-1.1-0.8-1.4-1.4l-4.8-7.2h-53.8l-8.2-31.3H103
				c0-0.2-0.1-0.3-0.1-0.5c-1.3-2.6-2.2-5.3-2.7-8.1H89.8l-3.6-13.8c-0.5-1.9-2.2-3.2-4.2-3.2H67c-2.4,0-4.3,1.9-4.3,4.3
				c0,2.4,1.9,4.3,4.3,4.3h11.7l13.9,53c0,0.4,0.2,0.9,0.3,1.2l3,11.6c-3.7,1.9-6.3,5.8-6.3,10.2c0,6.3,5.2,11.5,11.5,11.5
				c6.3,0,11.5-5.2,11.5-11.5c0-1-0.1-2-0.4-2.9H143c-0.2,0.9-0.4,1.9-0.4,2.9c0,6.3,5.2,11.5,11.5,11.5c6.3,0,11.5-5.2,11.5-11.5
				C165.6,162.6,160.4,157.5,154.1,157.5z M101.3,171.9c-1.6,0-2.9-1.3-2.9-2.9c0-1.6,1.3-2.9,2.9-2.9c1.6,0,2.9,1.3,2.9,2.9
				C104.2,170.6,102.9,171.9,101.3,171.9z M154.1,171.9c-1.6,0-2.9-1.3-2.9-2.9c0-1.6,1.3-2.9,2.9-2.9c1.6,0,2.9,1.3,2.9,2.9
				C157,170.6,155.7,171.9,154.1,171.9z"/>
			<path class="st1" d="M175.9,102.9c-0.8-1-2.1-1.7-3.4-1.7h-13.6c0,0.2-0.1,0.4-0.1,0.6c-0.4,1.8-0.9,3.4-1.5,5.1
				c-0.4,1-0.8,1.9-1.3,2.9h11l-5.7,22.4l-0.6,2.5l5.7,8.7c0.3,0.4,0.5,0.9,0.6,1.4l1.4-5.5l8.3-32.7
				C177,105.3,176.7,104,175.9,102.9z"/>
		</g>
		<path class="st2" d="M166.4,143.4l-5.7-8.7l-11-16.7c2.6-2.4,4.7-5.1,6.3-8.2c0.5-0.9,0.9-1.9,1.3-2.9c0.6-1.6,1.2-3.3,1.5-5.1
			c0-0.2,0.1-0.4,0.1-0.6c0.2-0.9,0.3-1.8,0.4-2.7c0.6-6.7-1.1-13.4-4.9-19.1c-4.4-6.6-11.1-11.2-19-12.7c-7.8-1.6-15.8,0-22.4,4.4
			c-5.9,3.9-9.9,9.5-11.9,15.7c-0.9,2.7-1.4,5.6-1.4,8.5c0,2,0.1,3.9,0.5,5.9c0.5,2.8,1.4,5.5,2.7,8.1c0.5,1.1,1.1,2.1,1.8,3.1
			c4.6,6.8,11.5,11.2,19,12.7c6.1,1.2,12.6,0.5,18.4-2.2l12,18.1l4.8,7.2c0.4,0.6,0.9,1,1.4,1.4h2c1.4,0,2.6-0.7,3.4-1.7
			c0.3-0.4,0.6-1,0.8-1.5l0.4-1.7C166.8,144.3,166.7,143.8,166.4,143.4z M145.5,110.8c-1.2,1.3-2.5,2.4-3.9,3.4
			c-1.3,0.9-2.7,1.6-4.1,2.1c-1.3,0.5-2.6,0.9-4,1.2c-2.7,0.5-5.4,0.5-8,0c-1.4-0.3-2.7-0.6-4-1.1c-3-1.2-5.7-3-8-5.5
			c-0.8-0.8-1.5-1.7-2.2-2.7c-2.3-3.4-3.4-7.3-3.6-11.1c-0.1-2.9,0.3-5.8,1.3-8.5c1.5-4.2,4.4-8,8.4-10.7c4.9-3.2,10.7-4.4,16.4-3.2
			c5.7,1.2,10.6,4.5,13.9,9.3c2.6,3.9,3.8,8.5,3.6,13.1c-0.1,1.1-0.2,2.2-0.4,3.3c-0.4,1.8-0.9,3.4-1.7,5
			C148.3,107.3,147,109.2,145.5,110.8z"/>
	</g>
</g>
</svg>
