<?xml version="1.0" encoding="utf-8"?>
<!-- Generator: Adobe Illustrator 22.0.1, SVG Export Plug-In . SVG Version: 6.00 Build 0)  -->
<svg version="1.1" id="Layer_1" xmlns="http://www.w3.org/2000/svg" xmlns:xlink="http://www.w3.org/1999/xlink" x="0px" y="0px"
	 viewBox="0 0 512 512" style="enable-background:new 0 0 512 512;" xml:space="preserve">
<style type="text/css">
	.st0{fill:#1E2733;}
	.st1{fill:#D9AF7D;}
	.st2{fill:#FFFFFF;}
	.st3{fill:#00CC33;fill-opacity:0.83;}
</style>
<g>
	<circle class="st0" cx="256" cy="256" r="256"/>
	<g>
		<g>
			<path class="st1" d="M268.1,235.9v-44.3c0-4.4-3.6-8-8-8s-8,3.6-8,8v44.3C257.3,236.8,262.8,236.9,268.1,235.9z"/>
			<path class="st1" d="M244.1,233.6v-32c0-4.4-3.6-8-8-8s-8,3.6-8,8v21.1C232.6,227.5,238.1,231.2,244.1,233.6z"/>
			<path class="st1" d="M292.1,222.6v-41.1c0-4.4-3.6-8-8-8s-8,3.6-8,8v52c2.8-1.1,5.5-2.5,8.2-4.2
				C287.2,227.4,289.8,225.1,292.1,222.6z"/>
			<path class="st1" d="M309.2,315.9L309.2,315.9h-98.9l-4.1-15.5h115.5c-1.1-0.7-2.1-1.6-2.9-2.7l-9.6-14.5H201.6l-16.5-62.6H207
				c-0.1-0.3-0.1-0.6-0.2-0.9c-2.6-5.2-4.4-10.7-5.4-16.2h-20.7l-7.2-27.5c-1-3.8-4.4-6.4-8.3-6.4H135c-4.7,0-8.6,3.8-8.6,8.6
				c0,4.7,3.8,8.6,8.6,8.6h23.5l27.9,106c0.1,0.9,0.3,1.7,0.7,2.5l6.1,23.2c-7.4,3.8-12.5,11.6-12.5,20.5c0,12.7,10.3,23,23,23
				c12.7,0,23-10.3,23-23c0-2-0.3-3.9-0.7-5.8h61.1c-0.5,1.9-0.7,3.8-0.7,5.8c0,12.7,10.3,23,23,23c12.7,0,23-10.3,23-23
				C332.1,326.2,321.8,315.9,309.2,315.9z M203.6,344.7c-3.2,0-5.8-2.6-5.8-5.8c0-3.2,2.6-5.8,5.8-5.8c3.2,0,5.8,2.6,5.8,5.8
				C209.4,342.1,206.8,344.7,203.6,344.7z M309.2,344.7c-3.2,0-5.8-2.6-5.8-5.8c0-3.2,2.6-5.8,5.8-5.8c3.2,0,5.8,2.6,5.8,5.8
				C315,342.1,312.4,344.7,309.2,344.7z"/>
			<path class="st1" d="M352.8,206.8c-1.6-2.1-4.1-3.3-6.8-3.3h-27.3c-0.1,0.4-0.1,0.9-0.2,1.3c-0.7,3.5-1.7,6.9-3,10.1
				c-0.8,2-1.7,3.9-2.6,5.8H335l-11.4,44.8l-1.3,5l11.4,17.3c0.6,0.9,0.9,1.8,1.2,2.7l2.8-10.9l16.7-65.4
				C355,211.6,354.4,208.9,352.8,206.8z"/>
		</g>
		<path class="st2" d="M333.7,287.8l-11.4-17.3l-22.1-33.4c5.2-4.7,9.5-10.3,12.7-16.4c1-1.9,1.9-3.8,2.6-5.8
			c1.3-3.3,2.3-6.6,3-10.1c0.1-0.4,0.1-0.9,0.2-1.3c0.3-1.8,0.6-3.5,0.7-5.3c1.2-13.4-2.2-26.8-9.7-38.2
			c-8.8-13.3-22.3-22.3-37.9-25.5c-15.6-3.1-31.5,0-44.8,8.8c-11.7,7.8-19.8,19-23.7,31.5c-1.8,5.5-2.7,11.2-2.8,17
			c-0.1,3.9,0.2,7.8,0.9,11.7c1,5.6,2.8,11,5.4,16.2c1.1,2.1,2.2,4.2,3.6,6.3c9.1,13.7,22.9,22.4,37.9,25.4
			c12.2,2.5,25.1,1.1,36.9-4.4l24,36.2l9.6,14.5c0.8,1.2,1.8,2,2.9,2.7h4.1c2.7,0,5.2-1.3,6.8-3.4c0.7-0.9,1.2-1.9,1.5-3.1l0.9-3.5
			C334.7,289.6,334.3,288.6,333.7,287.8z M292.1,222.6c-2.3,2.5-4.9,4.8-7.8,6.7c-2.6,1.7-5.3,3.1-8.2,4.2c-2.6,1-5.3,1.8-8,2.3
			c-5.3,1-10.8,0.9-16,0c-2.7-0.5-5.4-1.3-8-2.3c-6-2.3-11.5-6-16-10.9c-1.6-1.7-3.1-3.5-4.4-5.5c-4.5-6.8-6.9-14.5-7.2-22.2
			c-0.3-5.8,0.6-11.6,2.6-17c3.1-8.4,8.7-16,16.8-21.3c9.7-6.5,21.4-8.7,32.8-6.4c11.4,2.3,21.3,8.9,27.7,18.6
			c5.2,7.8,7.7,16.9,7.2,26.2c-0.1,2.2-0.3,4.4-0.8,6.6c-0.7,3.5-1.9,6.9-3.4,10.1C297.6,215.7,295.1,219.4,292.1,222.6z"/>
	</g>
</g>
<g transform="translate(314 311)">
	<ellipse class="st3" cx="99.3" cy="101.1" rx="98.7" ry="99.9"/>
	<path class="st2" d="M133.9,67.5l-55.3,55.3h12L63,95.2c-3.4-3.4-8.8-3.4-12,0c-3.4,3.4-3.4,8.8,0,12l27.6,27.6
		c3.4,3.4,8.8,3.4,12,0l55.3-55.3c3.4-3.4,3.4-8.8,0-12C142.7,64.3,137.3,64.3,133.9,67.5L133.9,67.5z"/>
</g>
</svg>
